<?xml version="1.0" encoding="iso-8859-1"?>
<!-- Generator: Adobe Illustrator 19.0.0, SVG Export Plug-In . SVG Version: 6.00 Build 0)  -->
<svg version="1.1" id="Capa_1" xmlns="http://www.w3.org/2000/svg" xmlns:xlink="http://www.w3.org/1999/xlink" x="0px" y="0px"
	 viewBox="0 0 511.151 511.151" style="enable-background:new 0 0 511.151 511.151;" xml:space="preserve">
<g>
	<g>
		<path d="M393.818,223.575c-64.683,0-117.333,52.629-117.333,117.333s52.651,117.333,117.333,117.333
			s117.333-52.629,117.333-117.333S458.5,223.575,393.818,223.575z M393.818,436.909c-52.928,0-96-43.072-96-96
			c0-52.928,43.072-96,96-96c52.928,0,96,43.072,96,96C489.818,393.837,446.746,436.909,393.818,436.909z"/>
	</g>
</g>
<g>
	<g>
		<path d="M476.762,408.813L325.935,257.965c-4.16-4.16-10.923-4.16-15.083,0c-4.16,4.16-4.16,10.923,0,15.083l150.827,150.848
			c2.091,2.069,4.821,3.115,7.552,3.115c2.731,0,5.461-1.045,7.531-3.115C480.922,419.735,480.922,412.973,476.762,408.813z"/>
	</g>
</g>
<g>
	<g>
		<path d="M443.524,153.261C384.708,88.536,306.458,52.909,223.151,52.909S61.594,88.536,2.778,153.239
			c-3.968,4.373-3.648,11.115,0.725,15.083c4.373,3.947,11.115,3.669,15.061-0.725c54.72-60.203,127.381-93.355,204.587-93.355
			s149.867,33.152,204.587,93.355c2.112,2.325,4.992,3.499,7.893,3.499c2.56,0,5.12-0.917,7.168-2.752
			C447.172,164.375,447.492,157.634,443.524,153.261z"/>
	</g>
</g>
<g>
	<g>
		<path d="M388.698,213.591c-44.16-48.597-102.933-75.349-165.547-75.349s-121.387,26.752-165.547,75.349
			c-3.968,4.373-3.648,11.115,0.725,15.083c4.352,3.968,11.093,3.648,15.061-0.725c40.064-44.096,93.269-68.373,149.76-68.373
			c56.491,0,109.696,24.277,149.76,68.352c2.112,2.325,4.992,3.499,7.893,3.499c2.56,0,5.12-0.917,7.168-2.752
			C392.346,224.706,392.666,217.965,388.698,213.591z"/>
	</g>
</g>
<g>
	<g>
		<path d="M316.932,257.005c-50.24-45.227-144.405-49.216-204.48,16.917c-3.968,4.373-3.648,11.115,0.725,15.083
			c2.048,1.856,4.608,2.773,7.168,2.773c2.88,0,5.781-1.173,7.893-3.499c51.541-56.747,131.797-53.781,174.443-15.424
			c4.352,3.947,11.115,3.605,15.061-0.789C321.69,267.671,321.327,260.951,316.932,257.005z"/>
	</g>
</g>
<g>
	<g>
		<path d="M223.151,308.909c-29.419,0-53.333,23.936-53.333,53.333s23.915,53.333,53.333,53.333
			c29.419,0,53.333-23.936,53.333-53.333S252.57,308.909,223.151,308.909z M223.151,394.242c-17.643,0-32-14.357-32-32
			s14.357-32,32-32c17.643,0,32,14.357,32,32S240.794,394.242,223.151,394.242z"/>
	</g>
</g>
<g>
</g>
<g>
</g>
<g>
</g>
<g>
</g>
<g>
</g>
<g>
</g>
<g>
</g>
<g>
</g>
<g>
</g>
<g>
</g>
<g>
</g>
<g>
</g>
<g>
</g>
<g>
</g>
<g>
</g>
</svg>
